<svg width="120" height="120" viewBox="0 0 120 120" fill="none" xmlns="http://www.w3.org/2000/svg">
<g filter="url(#filter0_di_54_368)">
<rect x="8" y="4" width="104" height="104" rx="52" fill="#F33B0D"/>
<path d="M51.28 57C50.2933 57.1067 48.6933 57.32 46.48 57.64C44.56 57.9333 43.2533 58.12 42.56 58.2L39.4 58.68C37.72 58.9467 36.3467 59.1333 35.28 59.24C34.24 59.3733 33.0933 59.44 31.84 59.44C31.3867 59.44 30.96 59.28 30.56 58.96C30.1867 58.64 30 58.1867 30 57.6C30 57.28 30.0533 57.0267 30.16 56.84C30.2667 56.6533 30.44 56.4267 30.68 56.16C32.2267 54.6133 33.5467 53.2267 34.64 52C35.76 50.7733 37.1333 49.1867 38.76 47.24C40.4133 45.24 41.64 43.5333 42.44 42.12C43.2667 40.7067 43.68 39.24 43.68 37.72C43.68 36.3333 43.2667 35.2667 42.44 34.52C41.64 33.7467 40.5867 33.36 39.28 33.36C38.2933 33.36 37.4267 33.5067 36.68 33.8C35.9333 34.0667 34.8933 34.5867 33.56 35.36C33.24 35.52 32.8933 35.76 32.52 36.08C32.1467 36.3733 31.9067 36.56 31.8 36.64C31.4267 36.96 31.0533 37.24 30.68 37.48C30.3333 37.72 30.0667 37.84 29.88 37.84C29.24 37.84 28.92 37.48 28.92 36.76C28.92 36.1467 29.2667 35.6 29.96 35.12C30.12 35.0133 30.6933 34.68 31.68 34.12C32.2667 33.8267 32.7333 33.5733 33.08 33.36C34.3067 32.6667 35.3733 32.1733 36.28 31.88C37.2133 31.5867 38.32 31.44 39.6 31.44C41.44 31.44 42.92 32.0133 44.04 33.16C45.1867 34.3067 45.76 35.76 45.76 37.52C45.76 38.8533 45.4533 40.2 44.84 41.56C44.2533 42.8933 43.5867 44.0667 42.84 45.08C42.0933 46.0933 41.2 47.2133 40.16 48.44C39.6 49.1067 38.1867 50.6667 35.92 53.12L33.84 55.4C33.76 55.48 33.5333 55.7067 33.16 56.08C32.8133 56.48 32.64 56.76 32.64 56.92C32.64 57.24 32.96 57.4 33.6 57.4C34.4533 57.4 35.5733 57.28 36.96 57.04C38.3733 56.8 39.2133 56.6533 39.48 56.6L42.96 56C43.4933 55.92 44.8133 55.7467 46.92 55.48C48.7867 55.24 49.9467 55.0667 50.4 54.96C50.7467 54.7467 51.12 54.5467 51.52 54.36C51.92 54.1467 52.1867 54.04 52.32 54.04C52.8533 54.04 53.12 54.5333 53.12 55.52C53.12 55.8667 52.9467 56.16 52.6 56.4C52.28 56.6667 51.84 56.8667 51.28 57ZM61.5409 59.32C59.6209 59.32 58.1409 58.6 57.1009 57.16C56.0609 55.72 55.5409 53.8533 55.5409 51.56C55.5409 48.8133 55.8743 46.04 56.5409 43.24C57.2343 40.4133 58.1543 37.8667 59.3009 35.6C59.0876 35.6 58.8876 35.52 58.7009 35.36C58.5143 35.2 58.4209 35 58.4209 34.76C58.4209 34.4133 58.6209 34.0933 59.0209 33.8C59.4476 33.5067 59.9409 33.2933 60.5009 33.16C60.5543 33.1067 60.6476 33 60.7809 32.84C60.9143 32.6533 61.1009 32.56 61.3409 32.56C61.6076 32.56 61.8609 32.6133 62.1009 32.72C62.3409 32.8 62.4876 32.8933 62.5409 33C63.2876 32.8667 64.0476 32.8 64.8209 32.8C66.6343 32.8 68.2609 33.2933 69.7009 34.28C71.1409 35.2667 72.2743 36.64 73.1009 38.4C73.9276 40.1333 74.3409 42.08 74.3409 44.24C74.3409 46.5867 73.7276 48.9333 72.5009 51.28C71.3009 53.6267 69.7009 55.5467 67.7009 57.04C65.7276 58.56 63.6743 59.32 61.5409 59.32ZM64.9809 35.24C64.3676 35.24 63.5543 35.32 62.5409 35.48L61.7009 35.6C60.4743 37.7867 59.5143 40.36 58.8209 43.32C58.1543 46.28 57.8209 49.0133 57.8209 51.52C57.8209 53.2 58.1409 54.5867 58.7809 55.68C59.4476 56.7467 60.4876 57.28 61.9009 57.28C63.5276 57.28 65.1676 56.6 66.8209 55.24C68.4743 53.8533 69.8343 52.1467 70.9009 50.12C71.9676 48.0933 72.5009 46.16 72.5009 44.32C72.5009 42.6933 72.1409 41.1867 71.4209 39.8C70.7276 38.3867 69.7943 37.28 68.6209 36.48C67.4743 35.6533 66.2609 35.24 64.9809 35.24ZM91.9991 45.76C90.4791 46.0533 88.7324 46.3067 86.7591 46.52C86.7324 46.9467 86.7191 47.5467 86.7191 48.32C86.7191 49.7333 86.7591 50.8133 86.8391 51.56C86.9191 52.28 87.0391 53.0533 87.1991 53.88C87.3057 54.36 87.3591 54.6667 87.3591 54.8C87.3591 54.9867 87.2524 55.1333 87.0391 55.24C86.8257 55.3467 86.5724 55.4 86.2791 55.4C85.6657 55.4 85.2791 54.88 85.1191 53.84C84.9591 52.8 84.8791 51.7733 84.8791 50.76V46.76C81.8124 47.08 79.6124 47.24 78.2791 47.24C77.9591 47.24 77.6524 47.16 77.3591 47C77.0924 46.8133 76.9591 46.6 76.9591 46.36C76.9591 46.0133 77.0791 45.7867 77.3191 45.68C77.5591 45.5733 77.9591 45.52 78.5191 45.52C80.0124 45.52 82.1457 45.3467 84.9191 45V42.72C84.9191 41.68 84.9457 40.48 84.9991 39.12C85.0791 37.76 85.1457 36.9067 85.1991 36.56C85.2524 36.1867 85.4924 36 85.9191 36C86.3991 36 86.7191 36.2133 86.8791 36.64C87.0391 37.0667 87.1191 37.52 87.1191 38C87.1191 38.5333 87.0657 39.84 86.9591 41.92C86.9057 42.5333 86.8524 43.48 86.7991 44.76C88.6924 44.44 90.2657 44.12 91.5191 43.8C91.7324 43.7467 91.9057 43.5733 92.0391 43.28C92.1991 42.96 92.3591 42.8 92.5191 42.8C92.8124 42.8 93.1057 42.9733 93.3991 43.32C93.7191 43.64 93.8791 43.9733 93.8791 44.32C93.8791 44.7467 93.7324 45.0667 93.4391 45.28C93.1457 45.4667 92.6657 45.6267 91.9991 45.76Z" fill="white"/>
<path d="M21.2491 78.4545V69.4545H22.4934V70.5156H22.6C22.6738 70.3793 22.7804 70.2216 22.9196 70.0426C23.0588 69.8636 23.252 69.7074 23.4991 69.5739C23.7463 69.4375 24.073 69.3693 24.4792 69.3693C25.0076 69.3693 25.4792 69.5028 25.894 69.7699C26.3088 70.0369 26.6341 70.4219 26.8699 70.9247C27.1085 71.4276 27.2278 72.0327 27.2278 72.7401C27.2278 73.4474 27.1099 74.054 26.8741 74.5597C26.6383 75.0625 26.3145 75.4503 25.9025 75.723C25.4906 75.9929 25.0204 76.1278 24.492 76.1278C24.0943 76.1278 23.769 76.0611 23.5162 75.9276C23.2662 75.794 23.0701 75.6378 22.9281 75.4588C22.786 75.2798 22.6767 75.1207 22.6 74.9815H22.5233V78.4545H21.2491ZM22.4977 72.7273C22.4977 73.1875 22.5645 73.5909 22.698 73.9375C22.8315 74.2841 23.0247 74.5554 23.2775 74.7514C23.5304 74.9446 23.84 75.0412 24.2065 75.0412C24.5872 75.0412 24.9054 74.9403 25.161 74.7386C25.4167 74.5341 25.6099 74.2571 25.7406 73.9077C25.8741 73.5582 25.9409 73.1648 25.9409 72.7273C25.9409 72.2955 25.8755 71.9077 25.7449 71.5639C25.617 71.2202 25.4238 70.9489 25.1653 70.75C24.9096 70.5511 24.59 70.4517 24.2065 70.4517C23.8372 70.4517 23.5247 70.5469 23.269 70.7372C23.0162 70.9276 22.8244 71.1932 22.6937 71.5341C22.563 71.875 22.4977 72.2727 22.4977 72.7273ZM31.4125 76.1321C30.7988 76.1321 30.2633 75.9915 29.8059 75.7102C29.3485 75.429 28.9934 75.0355 28.7406 74.5298C28.4877 74.0241 28.3613 73.4332 28.3613 72.7571C28.3613 72.0781 28.4877 71.4844 28.7406 70.9759C28.9934 70.4673 29.3485 70.0724 29.8059 69.7912C30.2633 69.5099 30.7988 69.3693 31.4125 69.3693C32.0261 69.3693 32.5616 69.5099 33.019 69.7912C33.4764 70.0724 33.8315 70.4673 34.0843 70.9759C34.3372 71.4844 34.4636 72.0781 34.4636 72.7571C34.4636 73.4332 34.3372 74.0241 34.0843 74.5298C33.8315 75.0355 33.4764 75.429 33.019 75.7102C32.5616 75.9915 32.0261 76.1321 31.4125 76.1321ZM31.4167 75.0625C31.8145 75.0625 32.144 74.9574 32.4054 74.7472C32.6667 74.5369 32.8599 74.2571 32.9849 73.9077C33.1127 73.5582 33.1767 73.1733 33.1767 72.7528C33.1767 72.3352 33.1127 71.9517 32.9849 71.6023C32.8599 71.25 32.6667 70.9673 32.4054 70.7543C32.144 70.5412 31.8145 70.4347 31.4167 70.4347C31.0162 70.4347 30.6838 70.5412 30.4196 70.7543C30.1582 70.9673 29.9636 71.25 29.8358 71.6023C29.7108 71.9517 29.6483 72.3352 29.6483 72.7528C29.6483 73.1733 29.7108 73.5582 29.8358 73.9077C29.9636 74.2571 30.1582 74.5369 30.4196 74.7472C30.6838 74.9574 31.0162 75.0625 31.4167 75.0625ZM35.8858 76V69.4545H37.16V72.1989H37.7736L39.9341 69.4545H41.5108L38.9753 72.6378L41.5407 76H39.9597L37.9867 73.3835H37.16V76H35.8858ZM42.5304 76V69.4545H43.8045V76H42.5304ZM43.1738 68.4446C42.9522 68.4446 42.7619 68.3707 42.6028 68.223C42.4466 68.0724 42.3684 67.8935 42.3684 67.6861C42.3684 67.4759 42.4466 67.2969 42.6028 67.1491C42.7619 66.9986 42.9522 66.9233 43.1738 66.9233C43.3954 66.9233 43.5843 66.9986 43.7406 67.1491C43.8997 67.2969 43.9792 67.4759 43.9792 67.6861C43.9792 67.8935 43.8997 68.0724 43.7406 68.223C43.5843 68.3707 43.3954 68.4446 43.1738 68.4446ZM45.5186 76V69.4545H48.2331C48.9718 69.4545 49.557 69.6122 49.9888 69.9276C50.4206 70.2401 50.6365 70.6648 50.6365 71.2017C50.6365 71.5852 50.5144 71.8892 50.2701 72.1136C50.0257 72.3381 49.7019 72.4886 49.2985 72.5653C49.5911 72.5994 49.8596 72.6875 50.1039 72.8295C50.3482 72.9687 50.5442 73.1562 50.6919 73.392C50.8425 73.6278 50.9178 73.9091 50.9178 74.2358C50.9178 74.5824 50.8283 74.8892 50.6493 75.1562C50.4703 75.4205 50.2104 75.6278 49.8695 75.7784C49.5314 75.9261 49.1238 76 48.6465 76H45.5186ZM46.7161 74.9347H48.6465C48.9618 74.9347 49.209 74.8594 49.388 74.7088C49.5669 74.5582 49.6564 74.3537 49.6564 74.0952C49.6564 73.7912 49.5669 73.5526 49.388 73.3793C49.209 73.2031 48.9618 73.1151 48.6465 73.1151H46.7161V74.9347ZM46.7161 72.1818H48.2459C48.4846 72.1818 48.6891 72.1477 48.8596 72.0795C49.0328 72.0114 49.165 71.9148 49.2559 71.7898C49.3496 71.6619 49.3965 71.5114 49.3965 71.3381C49.3965 71.0852 49.2928 70.8878 49.0854 70.7457C48.878 70.6037 48.5939 70.5327 48.2331 70.5327H46.7161V72.1818ZM54.8521 77.8878V74.8963H55.3848C55.5211 74.7713 55.6362 74.6222 55.7299 74.4489C55.8265 74.2756 55.9075 74.0696 55.9728 73.831C56.041 73.5923 56.0978 73.3139 56.1433 72.9957C56.1887 72.6747 56.2285 72.3082 56.2626 71.8963L56.4672 69.4545H60.916V74.8963H61.9217V77.8878H60.6774V76H56.1135V77.8878H54.8521ZM56.7484 74.8963H59.6717V70.5455H57.6092L57.4728 71.8963C57.4075 72.5838 57.3251 73.1804 57.2257 73.6861C57.1262 74.1889 56.9672 74.5923 56.7484 74.8963ZM65.9242 76.1321C65.3105 76.1321 64.775 75.9915 64.3176 75.7102C63.8603 75.429 63.5051 75.0355 63.2523 74.5298C62.9995 74.0241 62.873 73.4332 62.873 72.7571C62.873 72.0781 62.9995 71.4844 63.2523 70.9759C63.5051 70.4673 63.8603 70.0724 64.3176 69.7912C64.775 69.5099 65.3105 69.3693 65.9242 69.3693C66.5378 69.3693 67.0733 69.5099 67.5307 69.7912C67.9881 70.0724 68.3432 70.4673 68.5961 70.9759C68.8489 71.4844 68.9753 72.0781 68.9753 72.7571C68.9753 73.4332 68.8489 74.0241 68.5961 74.5298C68.3432 75.0355 67.9881 75.429 67.5307 75.7102C67.0733 75.9915 66.5378 76.1321 65.9242 76.1321ZM65.9284 75.0625C66.3262 75.0625 66.6557 74.9574 66.9171 74.7472C67.1784 74.5369 67.3716 74.2571 67.4966 73.9077C67.6245 73.5582 67.6884 73.1733 67.6884 72.7528C67.6884 72.3352 67.6245 71.9517 67.4966 71.6023C67.3716 71.25 67.1784 70.9673 66.9171 70.7543C66.6557 70.5412 66.3262 70.4347 65.9284 70.4347C65.5279 70.4347 65.1955 70.5412 64.9313 70.7543C64.6699 70.9673 64.4753 71.25 64.3475 71.6023C64.2225 71.9517 64.16 72.3352 64.16 72.7528C64.16 73.1733 64.2225 73.5582 64.3475 73.9077C64.4753 74.2571 64.6699 74.5369 64.9313 74.7472C65.1955 74.9574 65.5279 75.0625 65.9284 75.0625ZM73.1547 76.1321C72.5211 76.1321 71.9757 75.9886 71.5183 75.7017C71.0637 75.4119 70.7143 75.0128 70.47 74.5043C70.2257 73.9957 70.1035 73.4134 70.1035 72.7571C70.1035 72.0923 70.2285 71.5057 70.4785 70.9972C70.7285 70.4858 71.0808 70.0866 71.5353 69.7997C71.9899 69.5128 72.5254 69.3693 73.1419 69.3693C73.639 69.3693 74.0822 69.4616 74.4714 69.6463C74.8606 69.8281 75.1745 70.0838 75.4132 70.4134C75.6547 70.7429 75.7981 71.1278 75.8436 71.5682H74.6035C74.5353 71.2614 74.3791 70.9972 74.1348 70.7756C73.8933 70.554 73.5694 70.4432 73.1632 70.4432C72.8081 70.4432 72.497 70.5369 72.2299 70.7244C71.9657 70.9091 71.7598 71.1733 71.612 71.517C71.4643 71.858 71.3904 72.2614 71.3904 72.7273C71.3904 73.2045 71.4629 73.6165 71.6078 73.9631C71.7527 74.3097 71.9572 74.5781 72.2214 74.7685C72.4885 74.9588 72.8024 75.054 73.1632 75.054C73.4047 75.054 73.6234 75.0099 73.8194 74.9219C74.0183 74.831 74.1845 74.7017 74.318 74.5341C74.4544 74.3665 74.5495 74.1648 74.6035 73.929H75.8436C75.7981 74.3523 75.6603 74.7301 75.4302 75.0625C75.2001 75.3949 74.8919 75.6562 74.5055 75.8466C74.122 76.0369 73.6717 76.1321 73.1547 76.1321ZM77.2061 76V69.4545H79.9206C80.6593 69.4545 81.2445 69.6122 81.6763 69.9276C82.1081 70.2401 82.324 70.6648 82.324 71.2017C82.324 71.5852 82.2019 71.8892 81.9576 72.1136C81.7132 72.3381 81.3894 72.4886 80.986 72.5653C81.2786 72.5994 81.5471 72.6875 81.7914 72.8295C82.0357 72.9687 82.2317 73.1562 82.3794 73.392C82.53 73.6278 82.6053 73.9091 82.6053 74.2358C82.6053 74.5824 82.5158 74.8892 82.3368 75.1562C82.1578 75.4205 81.8979 75.6278 81.557 75.7784C81.2189 75.9261 80.8113 76 80.334 76H77.2061ZM78.4036 74.9347H80.334C80.6493 74.9347 80.8965 74.8594 81.0755 74.7088C81.2544 74.5582 81.3439 74.3537 81.3439 74.0952C81.3439 73.7912 81.2544 73.5526 81.0755 73.3793C80.8965 73.2031 80.6493 73.1151 80.334 73.1151H78.4036V74.9347ZM78.4036 72.1818H79.9334C80.1721 72.1818 80.3766 72.1477 80.5471 72.0795C80.7203 72.0114 80.8525 71.9148 80.9434 71.7898C81.0371 71.6619 81.084 71.5114 81.084 71.3381C81.084 71.0852 80.9803 70.8878 80.7729 70.7457C80.5655 70.6037 80.2814 70.5327 79.9206 70.5327H78.4036V72.1818ZM84.003 76V69.4545H85.2772V76H84.003ZM84.6465 68.4446C84.4249 68.4446 84.2346 68.3707 84.0755 68.223C83.9192 68.0724 83.8411 67.8935 83.8411 67.6861C83.8411 67.4759 83.9192 67.2969 84.0755 67.1491C84.2346 66.9986 84.4249 66.9233 84.6465 66.9233C84.8681 66.9233 85.057 66.9986 85.2132 67.1491C85.3723 67.2969 85.4519 67.4759 85.4519 67.6861C85.4519 67.8935 85.3723 68.0724 85.2132 68.223C85.057 68.3707 84.8681 68.4446 84.6465 68.4446ZM86.3521 77.8878V74.8963H86.8848C87.0211 74.7713 87.1362 74.6222 87.2299 74.4489C87.3265 74.2756 87.4075 74.0696 87.4728 73.831C87.541 73.5923 87.5978 73.3139 87.6433 72.9957C87.6887 72.6747 87.7285 72.3082 87.7626 71.8963L87.9672 69.4545H92.416V74.8963H93.4217V77.8878H92.1774V76H87.6135V77.8878H86.3521ZM88.2484 74.8963H91.1717V70.5455H89.1092L88.9728 71.8963C88.9075 72.5838 88.8251 73.1804 88.7257 73.6861C88.6262 74.1889 88.4672 74.5923 88.2484 74.8963ZM95.4725 78.4545C95.2821 78.4545 95.1088 78.4389 94.9526 78.4077C94.7963 78.3793 94.6799 78.348 94.6032 78.3139L94.91 77.2699C95.1429 77.3324 95.3503 77.3594 95.5321 77.3509C95.714 77.3423 95.8745 77.2741 96.0137 77.1463C96.1557 77.0185 96.2807 76.8097 96.3887 76.5199L96.5463 76.0852L94.1515 69.4545H95.5151L97.1728 74.5341H97.2409L98.8986 69.4545H100.267L97.5691 76.8736C97.4441 77.2145 97.285 77.5028 97.0918 77.7386C96.8986 77.9773 96.6685 78.1563 96.4015 78.2756C96.1344 78.3949 95.8248 78.4545 95.4725 78.4545Z" fill="#F5F5F5"/>
</g>
<defs>
<filter id="filter0_di_54_368" x="0" y="0" width="120" height="120" filterUnits="userSpaceOnUse" color-interpolation-filters="sRGB">
<feFlood flood-opacity="0" result="BackgroundImageFix"/>
<feColorMatrix in="SourceAlpha" type="matrix" values="0 0 0 0 0 0 0 0 0 0 0 0 0 0 0 0 0 0 127 0" result="hardAlpha"/>
<feOffset dy="4"/>
<feGaussianBlur stdDeviation="4"/>
<feComposite in2="hardAlpha" operator="out"/>
<feColorMatrix type="matrix" values="0 0 0 0 0 0 0 0 0 0 0 0 0 0 0 0 0 0 0.25 0"/>
<feBlend mode="normal" in2="BackgroundImageFix" result="effect1_dropShadow_54_368"/>
<feBlend mode="normal" in="SourceGraphic" in2="effect1_dropShadow_54_368" result="shape"/>
<feColorMatrix in="SourceAlpha" type="matrix" values="0 0 0 0 0 0 0 0 0 0 0 0 0 0 0 0 0 0 127 0" result="hardAlpha"/>
<feOffset dx="4" dy="4"/>
<feGaussianBlur stdDeviation="2"/>
<feComposite in2="hardAlpha" operator="arithmetic" k2="-1" k3="1"/>
<feColorMatrix type="matrix" values="0 0 0 0 1 0 0 0 0 0.488327 0 0 0 0 0.269039 0 0 0 0.35 0"/>
<feBlend mode="normal" in2="shape" result="effect2_innerShadow_54_368"/>
</filter>
</defs>
</svg>
